<?xml version="1.0" encoding="UTF-8" standalone="no"?>
<svg
   width="396.0000366210937"
   height="246.6514513811384"
   viewBox="0 0 350 218"
   class="css-1j8o68f"
   version="1.1"
   id="svg22"
   sodipodi:docname="logo.svg"
   xmlns:inkscape="http://www.inkscape.org/namespaces/inkscape"
   xmlns:sodipodi="http://sodipodi.sourceforge.net/DTD/sodipodi-0.dtd"
   xmlns="http://www.w3.org/2000/svg"
   xmlns:svg="http://www.w3.org/2000/svg">
  <sodipodi:namedview
     id="namedview24"
     pagecolor="#ffffff"
     bordercolor="#000000"
     borderopacity="0.25"
     inkscape:showpageshadow="2"
     inkscape:pageopacity="0.0"
     inkscape:pagecheckerboard="0"
     inkscape:deskcolor="#d1d1d1" />
  <defs
     id="SvgjsDefs7151">
    <linearGradient
       id="SvgjsLinearGradient7158">
      <stop
         id="SvgjsStop7159"
         stop-color="#006838"
         offset="0" />
      <stop
         id="SvgjsStop7160"
         stop-color="#96cf24"
         offset="1" />
    </linearGradient>
    <linearGradient
       id="SvgjsLinearGradient7161">
      <stop
         id="SvgjsStop7162"
         stop-color="#006838"
         offset="0" />
      <stop
         id="SvgjsStop7163"
         stop-color="#96cf24"
         offset="1" />
    </linearGradient>
  </defs>
  <g
     id="SvgjsG7152"
     featurekey="rootContainer"
     transform="matrix(1,0,0,1,0,0)"
     fill="url(#SvgjsLinearGradient7158)">
    <rect
       y="0"
       height="1"
       width="1"
       opacity="0"
       id="rect9" />
    <rect
       y="213"
       width="350"
       height="5"
       id="rect11" />
  </g>
  <g
     id="SvgjsG7153"
     featurekey="symbolFeature-0"
     transform="matrix(1.5941120156137578,0,0,1.5941120156137578,95.62506803223434,5.48622082945837)"
     fill="url(#SvgjsLinearGradient7161)">
    <g
       id="g16">
      <path
         d="M 60.7862 22.5343 C 64.8512 23.0873 67.6111 22.5773 70.9085 19.5886 C 74.1244 16.2688 75.2893 12.3006 74.5851 7.85 C 68.4701 9.6138 60.6744 12.2264 60.3829 21.4825 C 61.2528 20.2388 64.1266 16.4231 67.353 15.3207 C 64.3064 16.7908 61.6008 20.8658 60.7862 22.5343 ZM 55.6752 28.7562 C 54.2631 26.61 46.4446 23.1346 43.7045 21.8602 C 43.6821 21.8531 43.675 21.8501 43.6843 21.8509 L 43.7045 21.8602 C 44.201 22.0166 52.218 24.0941 55.7629 27.4924 C 52.9179 17.3403 39.0481 14.0654 31.5229 15.6823 C 31.8111 21.8886 36.2169 27.2657 40.2073 30.017 C 43.8539 32.5313 51.6006 32.2285 55.6752 28.7562 ZM 53.2877 50.2643 C 53.2877 50.2643 54.1969 50.6928 54.7229 50.77 C 55.1969 50.4528 56.1532 49.8001 56.3629 49.13 C 54.0732 44.6601 55.0755 39.8798 57.2847 34.4336 C 60.5626 26.3532 60.6757 20.5879 58.8213 17.0339 C 58.2101 15.8626 57.4905 16.2528 57.8412 17.2387 C 62.0753 29.1409 47.9432 38.9972 53.2877 50.2643 ZM 37.0429 60.65 C 37.1465 60.6863 38.5784 61.1304 40.6703 61.776 L 48.3018 64.1242 L 55.8359 66.4278 C 57.5875 66.9601 58.8421 67.3371 59.1829 67.43 C 60.6549 67.8315 62.5472 69.1831 63.3402 71.0658 C 63.3768 71.1528 76.4621 63.7998 76.4621 63.7998 L 76.8829 62.09 C 76.8829 62.09 73.0356 59.3864 72.1429 59.03 C 71.2502 58.6736 70.8538 59.2045 70.4629 57.77 C 70.072 56.3355 70.4902 56.2955 69.5629 55.37 C 68.6356 54.4445 67.7629 55.19 67.7629 55.19 C 67.7629 55.19 67.5811 53.5682 67.0429 52.85 C 66.5047 52.1318 66.3083 52.6591 65.0629 52.31 C 63.8174 51.9609 64.1265 52.1136 63.3829 51.95 C 62.6393 51.7864 62.3083 50.8409 60.8629 50.27 C 59.4174 49.6991 58.2829 50.45 58.2829 50.45 C 58.2829 50.45 55.9447 53.3864 55.2229 53.21 C 54.5011 53.0336 50.672 50.8409 50.3029 50.87 C 49.9338 50.8991 49.2229 52.13 49.2229 52.13 L 47.9629 53.57 L 44.6629 53.39 L 42.5029 55.55 C 42.5029 55.55 41.2174 55.0227 37.0429 60.65 ZM 58.4177 69.3638 C 58.45 69.3723 31.2825 61.0388 31.2825 61.0388 C 26.149 59.6894 21.116 62.7103 21.116 62.7103 C 21.116 62.7103 10.4355 68.5084 10.1473 68.6768 C 8.0211 69.919 7.7726 71.1913 7.7726 74.5447 L 7.7629 86.5763 C 7.7629 90.0585 9.4821 90.8225 12.1414 89.6803 L 18.7897 86.3221 C 22.1559 84.3996 25.8591 85.462 25.8591 85.462 L 50.0806 91.8913 C 53.5257 92.8057 56.6884 91.0021 56.6884 91.0021 L 88.8987 72.6335 C 88.7894 72.6958 94.218 69.492 91.3922 64.7267 C 88.2351 59.4027 82.7804 62.3001 82.7804 62.3001 L 63.7853 72.9768 C 64.0728 75.613 62.9547 78.2411 61.0104 79.5233 C 58.6865 81.0559 55.7285 80.3803 54.9536 80.1756 C 48.2085 78.5302 41.4122 76.5986 34.6379 74.8773 C 34.2521 74.7753 33.7848 74.72 33.4932 74.7791 C 32.2328 74.8546 30.8477 75.6458 29.8575 75.9967 C 29.3687 76.2759 28.9579 75.7588 28.8638 75.5978 C 28.2993 74.6319 29.4993 74.2684 29.7436 74.1288 C 31.1283 73.3377 32.2217 72.6056 34.2661 72.9411 C 41.6098 74.3349 49.0759 76.8506 56.5012 78.5378 C 62.3381 80.0785 64.1339 70.8671 58.4177 69.3638 Z"
         fill="url(#SvgjsLinearGradient7161)"
         id="path14" />
    </g>
  </g>
  <g
     id="SvgjsG7154"
     featurekey="nameFeature-0"
     transform="matrix(0.9312672357275062,0,0,0.9312672357275062,-4.097576814139236,163.3578420773752)"
     fill="#000000">
    <path
       d="M8.76 14.52 l0 9.92 q1.24 -0.72 2.76 -0.96 q1.12 -0.2 2.88 -0.2 l5.68 0 q2.36 0 3.68 -1.08 q1.4 -1.16 1.4 -3.48 q0 -2.2 -1.48 -3.28 q-1.28 -0.92 -3.6 -0.92 l-11.32 0 z M21.52 35.28 l-3.64 -7.64 l-3.48 0 q-1.64 0 -2.88 0.2 q-1.52 0.28 -2.76 0.96 l0 11.2 l-4.36 0 l0 -29.84 l15.68 0 q2.76 0 4.88 1.04 t3.28 2.96 q1.24 2.04 1.24 4.8 q0 3.36 -1.8 5.52 t-5.08 3 l2.32 4.76 q1 1.48 1.56 2.08 q0.68 0.76 1.3 1.02 t1.62 0.26 l0.44 0 l0.96 -0.04 l0 4.44 q-2.32 0 -3.44 -0.16 q-1.88 -0.32 -3.2 -1.24 q-1.56 -1.12 -2.64 -3.32 z M43.266 40 l-4.28 0 l0 -29.84 l4.28 0 l0 29.84 z M76.25200000000001 30.92 q0 2.92 -1.76 5.2 q-1.72 2.16 -4.74 3.36 t-6.82 1.2 q-3.48 0 -6.76 -1.62 t-5.52 -4.5 l3.12 -2.92 q3.88 4.68 9.16 4.68 q2.32 0 4.24 -0.56 q2.12 -0.64 3.28 -1.8 q1.32 -1.28 1.32 -3.04 q0 -2.12 -1.32 -3.2 q-1.12 -0.92 -3.32 -1.2 q-1.28 -0.16 -4.2 -0.16 q-5.36 0 -8.18 -1.96 t-2.82 -5.76 q0 -2.4 1.42 -4.56 t3.9 -3.44 q2.56 -1.36 5.68 -1.36 q3.52 0 6.36 1.08 q3.04 1.16 5.64 3.64 l-2.72 3.2 q-2.44 -1.96 -4.44 -2.74 t-4.84 -0.78 q-1.64 0 -3.06 0.68 t-2.26 1.82 t-0.84 2.42 q0 3.44 6.36 3.44 q5.08 0 8.04 1.04 q2.8 1 4 3.04 q1.08 1.8 1.08 4.8 z M87.998 28.04 l0 7.6 l18.4 0 l0 4.36 l-22.76 0 l0 -29.84 l21 0 l0 4.4 l-16.64 0 l0 9.04 q1.24 -0.72 2.76 -0.96 q1.12 -0.2 2.88 -0.2 l6.52 0 l0 4.44 l-6.52 0 q-1.64 0 -2.88 0.2 q-1.52 0.28 -2.76 0.96 z M148.41 14.559999999999999 l-10.52 0 l0 25.44 l-4.24 0 l0 -25.44 l-10.64 0 l0 -4.4 l25.4 0 l0 4.4 z M180.796 24.880000000000003 q0 -3.2 -1.64 -5.8 q-1.56 -2.52 -4.26 -3.96 t-5.86 -1.44 q-3.28 0 -5.98 1.48 t-4.22 4.04 q-1.56 2.68 -1.56 5.96 q0 3.12 1.68 5.76 q1.6 2.48 4.3 3.94 t5.84 1.46 t5.84 -1.52 t4.26 -4.08 q1.6 -2.68 1.6 -5.84 z M185.116 25.119999999999997 q0 4.32 -2.24 7.96 q-2.16 3.48 -5.86 5.54 t-7.98 2.06 q-4.44 0 -8.16 -2.16 q-3.64 -2.08 -5.72 -5.72 q-2.16 -3.72 -2.16 -8.16 q0 -4.28 2.28 -7.88 q2.16 -3.44 5.86 -5.46 t7.94 -2.02 q4.36 0 8.08 2.12 q3.64 2.08 5.76 5.64 q2.2 3.72 2.2 8.08 z M218.46200000000002 14 l-2.8 3.28 q-1.64 -1.68 -3.92 -2.64 t-4.8 -0.96 q-3.28 0 -5.98 1.48 t-4.22 4.04 q-1.56 2.68 -1.56 5.96 q0 3.12 1.68 5.76 q1.6 2.48 4.3 3.94 t5.82 1.46 q2.2 0 4.22 -0.76 t3.62 -2.12 l0 -5.44 l-3.84 0 l-1.88 -4.32 l10.04 0 l0 11.6 q-2.28 2.56 -5.46 3.98 t-6.74 1.42 q-4.44 0 -8.16 -2.16 q-3.64 -2.08 -5.72 -5.72 q-2.16 -3.72 -2.16 -8.16 q0 -4.28 2.28 -7.88 q2.16 -3.44 5.86 -5.46 t7.94 -2.02 q3.32 0 6.32 1.28 q2.92 1.2 5.16 3.44 z M231.888 28.04 l0 7.6 l18.4 0 l0 4.36 l-22.76 0 l0 -29.84 l21 0 l0 4.4 l-16.64 0 l0 9.04 q1.24 -0.72 2.76 -0.96 q1.12 -0.2 2.88 -0.2 l6.52 0 l0 4.44 l-6.52 0 q-1.64 0 -2.88 0.2 q-1.52 0.28 -2.76 0.96 z M280.47400000000005 14.559999999999999 l-10.52 0 l0 25.44 l-4.24 0 l0 -25.44 l-10.64 0 l0 -4.4 l25.4 0 l0 4.4 z M291.38000000000005 26.8 l0 13.2 l-4.32 0 l0 -29.84 l4.32 0 l0 12.24 q1.6 -0.8 3.8 -0.8 q0.8 0 3.88 0.36 q4.32 0.52 5.84 0.52 q2.32 0 4.04 -0.76 l0 -11.56 l4.36 0 l0 29.84 l-4.36 0 l0 -13.88 q-1.72 0.76 -4.04 0.76 q-1.52 0 -5.84 -0.52 q-3.08 -0.36 -3.88 -0.36 q-2.2 0 -3.8 0.8 z M327.446 28.04 l0 7.6 l18.4 0 l0 4.36 l-22.76 0 l0 -29.84 l21 0 l0 4.4 l-16.64 0 l0 9.04 q1.24 -0.72 2.76 -0.96 q1.12 -0.2 2.88 -0.2 l6.52 0 l0 4.44 l-6.52 0 q-1.64 0 -2.88 0.2 q-1.52 0.28 -2.76 0.96 z M358.192 14.52 l0 9.92 q1.24 -0.72 2.76 -0.96 q1.12 -0.2 2.88 -0.2 l5.68 0 q2.36 0 3.68 -1.08 q1.4 -1.16 1.4 -3.48 q0 -2.2 -1.48 -3.28 q-1.28 -0.92 -3.6 -0.92 l-11.32 0 z M370.952 35.28 l-3.64 -7.64 l-3.48 0 q-1.64 0 -2.88 0.2 q-1.52 0.28 -2.76 0.96 l0 11.2 l-4.36 0 l0 -29.84 l15.68 0 q2.76 0 4.88 1.04 t3.28 2.96 q1.24 2.04 1.24 4.8 q0 3.36 -1.8 5.52 t-5.08 3 l2.32 4.76 q1 1.48 1.56 2.08 q0.68 0.76 1.3 1.02 t1.62 0.26 l0.44 0 l0.96 -0.04 l0 4.44 q-2.32 0 -3.44 -0.16 q-1.88 -0.32 -3.2 -1.24 q-1.56 -1.12 -2.64 -3.32 z"
       id="path19" />
  </g>
</svg>
